<mxfile host="Electron" modified="2024-10-14T14:09:59.051Z" agent="Mozilla/5.0 (Windows NT 10.0; Win64; x64) AppleWebKit/537.36 (KHTML, like Gecko) draw.io/24.6.1 Chrome/124.0.6367.207 Electron/30.0.6 Safari/537.36" etag="-IPuS7cnVbF5AYzNdEFN" version="24.6.1" type="device" pages="3">
  <diagram id="C5RBs43oDa-KdzZeNtuy" name="Geometry">
    <mxGraphModel dx="1434" dy="964" grid="1" gridSize="10" guides="1" tooltips="1" connect="1" arrows="1" fold="1" page="1" pageScale="1" pageWidth="1169" pageHeight="827" math="0" shadow="0">
      <root>
        <mxCell id="WIyWlLk6GJQsqaUBKTNV-0" />
        <mxCell id="WIyWlLk6GJQsqaUBKTNV-1" parent="WIyWlLk6GJQsqaUBKTNV-0" />
        <mxCell id="zkfFHV4jXpPFQw0GAbJ--12" value="" style="endArrow=block;endSize=10;endFill=0;shadow=0;strokeWidth=1;rounded=0;edgeStyle=elbowEdgeStyle;elbow=vertical;exitX=0.5;exitY=0;exitDx=0;exitDy=0;entryX=0.5;entryY=1;entryDx=0;entryDy=0;" parent="WIyWlLk6GJQsqaUBKTNV-1" source="UkmJgFslX8RdrZe-EppO-16" target="UkmJgFslX8RdrZe-EppO-22" edge="1">
          <mxGeometry width="160" relative="1" as="geometry">
            <mxPoint x="200" y="203" as="sourcePoint" />
            <mxPoint x="200" y="203" as="targetPoint" />
          </mxGeometry>
        </mxCell>
        <mxCell id="zkfFHV4jXpPFQw0GAbJ--16" value="" style="endArrow=block;endSize=10;endFill=0;shadow=0;strokeWidth=1;rounded=0;edgeStyle=elbowEdgeStyle;elbow=vertical;entryX=0.5;entryY=1;entryDx=0;entryDy=0;exitX=0.5;exitY=0;exitDx=0;exitDy=0;" parent="WIyWlLk6GJQsqaUBKTNV-1" source="UkmJgFslX8RdrZe-EppO-17" target="UkmJgFslX8RdrZe-EppO-22" edge="1">
          <mxGeometry width="160" relative="1" as="geometry">
            <mxPoint x="210" y="373" as="sourcePoint" />
            <mxPoint x="310" y="271" as="targetPoint" />
          </mxGeometry>
        </mxCell>
        <mxCell id="zkfFHV4jXpPFQw0GAbJ--26" value="" style="endArrow=open;shadow=0;strokeWidth=1;rounded=0;endFill=1;edgeStyle=elbowEdgeStyle;elbow=vertical;exitX=1;exitY=0.5;exitDx=0;exitDy=0;entryX=0;entryY=0.5;entryDx=0;entryDy=0;" parent="WIyWlLk6GJQsqaUBKTNV-1" source="UkmJgFslX8RdrZe-EppO-22" target="UkmJgFslX8RdrZe-EppO-26" edge="1">
          <mxGeometry x="0.5" y="41" relative="1" as="geometry">
            <mxPoint x="380" y="192" as="sourcePoint" />
            <mxPoint x="540" y="192" as="targetPoint" />
            <mxPoint x="-40" y="32" as="offset" />
          </mxGeometry>
        </mxCell>
        <mxCell id="zkfFHV4jXpPFQw0GAbJ--28" value="1" style="resizable=0;align=right;verticalAlign=bottom;labelBackgroundColor=none;fontSize=12;" parent="zkfFHV4jXpPFQw0GAbJ--26" connectable="0" vertex="1">
          <mxGeometry x="1" relative="1" as="geometry">
            <mxPoint x="-10" as="offset" />
          </mxGeometry>
        </mxCell>
        <mxCell id="UkmJgFslX8RdrZe-EppO-2" value="&lt;div&gt;&lt;b&gt;&lt;font style=&quot;font-size: 14px&quot;&gt;GeometryType&lt;/font&gt;&lt;/b&gt; (enum)&lt;/div&gt;&lt;div&gt;Unknown&lt;/div&gt;&lt;div&gt;&lt;span&gt;Point&lt;/span&gt;&lt;br&gt;&lt;/div&gt;&lt;div&gt;&lt;span&gt;Envelope&lt;/span&gt;&lt;br&gt;&lt;/div&gt;&lt;div&gt;&lt;span&gt;GeometryBag&lt;/span&gt;&lt;br&gt;&lt;/div&gt;&lt;div&gt;&lt;span&gt;Multipoint&lt;/span&gt;&lt;br&gt;&lt;/div&gt;&lt;div&gt;&lt;span&gt;Polyline&lt;/span&gt;&lt;br&gt;&lt;/div&gt;&lt;div&gt;&lt;span&gt;Polygon&lt;/span&gt;&lt;br&gt;&lt;/div&gt;&lt;div&gt;&lt;span&gt;Multipatch&lt;/span&gt;&lt;br&gt;&lt;/div&gt;" style="rounded=0;whiteSpace=wrap;html=1;fillColor=#ffe6cc;strokeColor=#d79b00;align=left;spacingLeft=4;spacingTop=0;" parent="WIyWlLk6GJQsqaUBKTNV-1" vertex="1">
          <mxGeometry x="140" y="120" width="160" height="140" as="geometry" />
        </mxCell>
        <mxCell id="UkmJgFslX8RdrZe-EppO-4" value="Pro SDK Geometry Classes" style="text;align=left;fontStyle=1;verticalAlign=middle;spacingLeft=3;spacingRight=3;strokeColor=none;rotatable=0;points=[[0,0.5],[1,0.5]];portConstraint=eastwest;fontSize=24;whiteSpace=wrap;html=1;" parent="WIyWlLk6GJQsqaUBKTNV-1" vertex="1">
          <mxGeometry x="80" y="40" width="400" height="40" as="geometry" />
        </mxCell>
        <mxCell id="UkmJgFslX8RdrZe-EppO-14" value="&lt;b&gt;&lt;font style=&quot;font-size: 14px&quot;&gt;SegmentType&lt;/font&gt;&lt;/b&gt; (enum)&lt;br&gt;Line&lt;br&gt;Bezier&amp;nbsp; &amp;nbsp;&lt;i&gt;(3rd degree)&lt;/i&gt;&lt;br&gt;EllipticArc&amp;nbsp; &amp;nbsp;&lt;i&gt;(also circular)&lt;/i&gt;" style="text;html=1;strokeColor=#d79b00;fillColor=#ffe6cc;align=left;verticalAlign=middle;whiteSpace=wrap;rounded=0;fontSize=12;spacingLeft=4;" parent="WIyWlLk6GJQsqaUBKTNV-1" vertex="1">
          <mxGeometry x="970" y="460" width="150" height="70" as="geometry" />
        </mxCell>
        <mxCell id="UkmJgFslX8RdrZe-EppO-15" value="&lt;b&gt;&lt;font style=&quot;font-size: 14px&quot;&gt;Coordinate2D&lt;/font&gt;&lt;/b&gt; (struct)&lt;br&gt;X, Y: double&lt;br&gt;IsEmpty&amp;nbsp;&amp;nbsp;&lt;i&gt;// X or Y is NaN&lt;/i&gt;&lt;br&gt;&lt;div&gt;Magnitude&amp;nbsp;&amp;nbsp;&lt;i&gt;// Pythagoras&lt;/i&gt;&lt;/div&gt;" style="text;html=1;strokeColor=#82b366;fillColor=#d5e8d4;align=left;verticalAlign=middle;whiteSpace=wrap;rounded=0;fontSize=12;spacingLeft=4;" parent="WIyWlLk6GJQsqaUBKTNV-1" vertex="1">
          <mxGeometry x="310" y="690" width="150" height="70" as="geometry" />
        </mxCell>
        <mxCell id="UkmJgFslX8RdrZe-EppO-16" value="&lt;b&gt;&lt;font style=&quot;font-size: 14px&quot;&gt;Envelope&lt;/font&gt;&lt;/b&gt;&amp;nbsp;(sealed)&lt;br&gt;XMin, YMin, XMax, YMax: double&lt;br&gt;PointCount&amp;nbsp;&amp;nbsp;&lt;i&gt;// 5 (sic)&lt;/i&gt;&lt;br&gt;Center: MapPoint&lt;br&gt;CenterCoordiate: Coordinate2D&lt;br&gt;Width, Height: double&lt;br&gt;Length = 2*Width + 2*Height&lt;br&gt;Area = IsEmpty ? 0 : Width*Height&lt;br&gt;&lt;br&gt;Union(&lt;i&gt;env&lt;/i&gt;): Envelope&lt;br&gt;Intersection(&lt;i&gt;env&lt;/i&gt;): Envelope&lt;br&gt;Expand(&lt;i&gt;dx&lt;/i&gt;, &lt;i&gt;dy&lt;/i&gt;, &lt;i&gt;asRatio&lt;/i&gt;): Envelope&lt;br&gt;CenterAt(&lt;i&gt;x&lt;/i&gt;, &lt;i&gt;y&lt;/i&gt;): Envelope&lt;br&gt;Intersects(&lt;i&gt;env&lt;/i&gt;): bool" style="text;html=1;strokeColor=#6c8ebf;fillColor=#dae8fc;align=left;verticalAlign=top;whiteSpace=wrap;rounded=0;fontSize=12;spacingLeft=6;spacingTop=2;" parent="WIyWlLk6GJQsqaUBKTNV-1" vertex="1">
          <mxGeometry x="40" y="360" width="210" height="210" as="geometry" />
        </mxCell>
        <mxCell id="UkmJgFslX8RdrZe-EppO-17" value="&lt;font&gt;&lt;b&gt;&lt;font style=&quot;font-size: 14px&quot;&gt;MapPoint&lt;/font&gt;&lt;/b&gt;&lt;span style=&quot;font-size: 13px&quot;&gt; (sealed)&lt;/span&gt;&lt;/font&gt;&lt;br&gt;X, Y: double&lt;br&gt;IsEmpty&amp;nbsp;&amp;nbsp;&lt;i&gt;// X or Y is NaN&lt;/i&gt;" style="text;html=1;strokeColor=#6c8ebf;fillColor=#dae8fc;align=left;verticalAlign=top;whiteSpace=wrap;rounded=0;fontSize=12;spacingLeft=4;spacingTop=2;" parent="WIyWlLk6GJQsqaUBKTNV-1" vertex="1">
          <mxGeometry x="260" y="360" width="150" height="70" as="geometry" />
        </mxCell>
        <mxCell id="UkmJgFslX8RdrZe-EppO-18" value="&lt;font&gt;&lt;b&gt;&lt;font style=&quot;font-size: 14px&quot;&gt;Multipoint&lt;/font&gt;&lt;/b&gt;&lt;span style=&quot;font-size: 13px&quot;&gt; (sealed)&lt;/span&gt;&lt;/font&gt;&lt;br&gt;Points: ReadOnlyPointCollection&lt;br&gt;PointCount = Points.Count" style="text;html=1;strokeColor=#6c8ebf;fillColor=#dae8fc;align=left;verticalAlign=top;whiteSpace=wrap;rounded=0;fontSize=12;spacingLeft=4;spacingTop=2;" parent="WIyWlLk6GJQsqaUBKTNV-1" vertex="1">
          <mxGeometry x="630" y="360" width="190" height="70" as="geometry" />
        </mxCell>
        <mxCell id="UkmJgFslX8RdrZe-EppO-19" value="&lt;b&gt;&lt;font style=&quot;font-size: 13px&quot;&gt;ReadOnlyPointCollection&lt;/font&gt;&lt;/b&gt;&lt;br&gt;&lt;i&gt;is a list of MapPoints&lt;/i&gt;" style="text;html=1;strokeColor=#6c8ebf;fillColor=#dae8fc;align=left;verticalAlign=top;whiteSpace=wrap;rounded=0;fontSize=12;spacingLeft=4;spacingTop=2;spacing=0;" parent="WIyWlLk6GJQsqaUBKTNV-1" vertex="1">
          <mxGeometry x="40" y="620" width="230" height="40" as="geometry" />
        </mxCell>
        <mxCell id="UkmJgFslX8RdrZe-EppO-20" value="&lt;b&gt;&lt;font style=&quot;font-size: 13px&quot;&gt;ReadOnlyPartCollection&lt;/font&gt;&lt;/b&gt;&lt;br&gt;&lt;i&gt;is a list of ReadOnlySegmentCollections&lt;/i&gt;" style="text;html=1;strokeColor=#6c8ebf;fillColor=#dae8fc;align=left;verticalAlign=top;whiteSpace=wrap;rounded=0;fontSize=12;spacingLeft=4;spacingTop=2;spacing=0;" parent="WIyWlLk6GJQsqaUBKTNV-1" vertex="1">
          <mxGeometry x="40" y="670" width="230" height="40" as="geometry" />
        </mxCell>
        <mxCell id="UkmJgFslX8RdrZe-EppO-21" value="&lt;b&gt;&lt;font style=&quot;font-size: 13px&quot;&gt;ReadOnlySegmentCollection&lt;/font&gt;&lt;/b&gt;&lt;br&gt;&lt;i&gt;is a list of Segments&lt;/i&gt;" style="text;html=1;strokeColor=#6c8ebf;fillColor=#dae8fc;align=left;verticalAlign=top;whiteSpace=wrap;rounded=0;fontSize=12;spacingLeft=4;spacingTop=2;spacing=0;" parent="WIyWlLk6GJQsqaUBKTNV-1" vertex="1">
          <mxGeometry x="40" y="720" width="230" height="40" as="geometry" />
        </mxCell>
        <mxCell id="UkmJgFslX8RdrZe-EppO-22" value="&lt;b&gt;&lt;font style=&quot;font-size: 14px&quot;&gt;Geometry&lt;/font&gt;&lt;/b&gt;&amp;nbsp;(abstract)&lt;br&gt;HasZ, HasM, HasID&lt;br&gt;SpatialReference&lt;br&gt;Dimension&amp;nbsp;&amp;nbsp;&lt;i&gt;// 0, 1, 2&lt;/i&gt;&lt;br&gt;Extent: Envelope&lt;br&gt;IsEmpty&lt;br&gt;GeometryType: enum&lt;br&gt;PointCount&lt;br&gt;IsEqual(other)&lt;br&gt;ToEsriShape()" style="text;html=1;strokeColor=#666666;fillColor=#f5f5f5;align=left;verticalAlign=top;whiteSpace=wrap;rounded=0;fontSize=12;spacingLeft=4;spacingTop=2;fontColor=#333333;" parent="WIyWlLk6GJQsqaUBKTNV-1" vertex="1">
          <mxGeometry x="320" y="120" width="160" height="160" as="geometry" />
        </mxCell>
        <mxCell id="UkmJgFslX8RdrZe-EppO-23" value="&lt;b&gt;&lt;font style=&quot;font-size: 14px&quot;&gt;Multipart&lt;/font&gt;&lt;/b&gt;&amp;nbsp;(abstract)&lt;br&gt;HasCurves&lt;br&gt;Length, Area&lt;br&gt;Parts: ReadOnlyPartCollection&lt;br&gt;PartCount = Parts.Count&lt;br&gt;Points: ReadOnlyPointCollection&lt;br&gt;PointCount = Points.Count&lt;br&gt;IsEmpty = PartCount == 0&lt;br&gt;GetAllSegments() &lt;i&gt;// from all parts&lt;/i&gt;" style="text;html=1;strokeColor=#666666;fillColor=#f5f5f5;align=left;verticalAlign=top;whiteSpace=wrap;rounded=0;fontSize=12;spacingLeft=4;spacingTop=2;fontColor=#333333;" parent="WIyWlLk6GJQsqaUBKTNV-1" vertex="1">
          <mxGeometry x="420" y="360" width="200" height="140" as="geometry" />
        </mxCell>
        <mxCell id="UkmJgFslX8RdrZe-EppO-24" value="&lt;b&gt;&lt;font style=&quot;font-size: 14px&quot;&gt;Multipatch&lt;/font&gt;&lt;/b&gt;&lt;br&gt;&lt;br&gt;&lt;i&gt;for 3D surfaces&lt;/i&gt;" style="text;html=1;strokeColor=#6c8ebf;fillColor=#dae8fc;align=left;verticalAlign=top;whiteSpace=wrap;rounded=0;fontSize=12;spacingLeft=4;spacingTop=2;" parent="WIyWlLk6GJQsqaUBKTNV-1" vertex="1">
          <mxGeometry x="830" y="360" width="100" height="70" as="geometry" />
        </mxCell>
        <mxCell id="UkmJgFslX8RdrZe-EppO-25" value="&lt;b&gt;&lt;font style=&quot;font-size: 14px&quot;&gt;GeometryBag&lt;/font&gt;&lt;/b&gt;&amp;nbsp;(sealed)&lt;br&gt;Geometries: List of Geom." style="text;html=1;strokeColor=#6c8ebf;fillColor=#dae8fc;align=left;verticalAlign=top;whiteSpace=wrap;rounded=0;fontSize=12;spacingLeft=4;spacingTop=2;" parent="WIyWlLk6GJQsqaUBKTNV-1" vertex="1">
          <mxGeometry x="940" y="360" width="160" height="70" as="geometry" />
        </mxCell>
        <mxCell id="UkmJgFslX8RdrZe-EppO-26" value="&lt;b&gt;&lt;font style=&quot;font-size: 14px&quot;&gt;SpatialReference&lt;/font&gt;&lt;/b&gt;&amp;nbsp;(sealed)&lt;br&gt;Wkid: int&lt;br&gt;Name: string&lt;br&gt;Wkt: string&amp;nbsp;&amp;nbsp;&lt;i&gt;// well-known text&lt;/i&gt;&lt;br&gt;XYTolerance: double&lt;br&gt;XYResolution: double&lt;br&gt;Unit: Unit&amp;nbsp; &lt;i&gt;// of coordiate values&lt;/i&gt;&lt;br&gt;Domain: Envelope&lt;br&gt;Datum: Datum&amp;nbsp;&amp;nbsp;&lt;i&gt;// horizontal datum&lt;/i&gt;&lt;br&gt;Is{Geographic,Projected,Unknown}&lt;br&gt;Gcs: SpatialReference&amp;nbsp;&amp;nbsp;&lt;i&gt;// geographic cs&lt;/i&gt;&lt;br&gt;ConvergenceAngle(Coordinate2D)&lt;br&gt;AreEqual(&lt;i&gt;sr1&lt;/i&gt;, &lt;i&gt;sr2&lt;/i&gt;, &lt;i&gt;ignoreUnknown&lt;/i&gt;)" style="text;html=1;strokeColor=#6c8ebf;fillColor=#dae8fc;align=left;verticalAlign=top;whiteSpace=wrap;rounded=0;fontSize=12;spacingLeft=4;spacingTop=2;" parent="WIyWlLk6GJQsqaUBKTNV-1" vertex="1">
          <mxGeometry x="830" y="100" width="250" height="200" as="geometry" />
        </mxCell>
        <mxCell id="UkmJgFslX8RdrZe-EppO-27" value="" style="endArrow=block;endSize=10;endFill=0;shadow=0;strokeWidth=1;rounded=0;edgeStyle=elbowEdgeStyle;elbow=vertical;entryX=0.5;entryY=1;entryDx=0;entryDy=0;exitX=0.5;exitY=0;exitDx=0;exitDy=0;" parent="WIyWlLk6GJQsqaUBKTNV-1" source="UkmJgFslX8RdrZe-EppO-23" target="UkmJgFslX8RdrZe-EppO-22" edge="1">
          <mxGeometry width="160" relative="1" as="geometry">
            <mxPoint x="395" y="330" as="sourcePoint" />
            <mxPoint x="380" y="290" as="targetPoint" />
          </mxGeometry>
        </mxCell>
        <mxCell id="UkmJgFslX8RdrZe-EppO-29" value="" style="endArrow=block;endSize=10;endFill=0;shadow=0;strokeWidth=1;rounded=0;edgeStyle=elbowEdgeStyle;elbow=vertical;entryX=0.5;entryY=1;entryDx=0;entryDy=0;exitX=0.5;exitY=0;exitDx=0;exitDy=0;" parent="WIyWlLk6GJQsqaUBKTNV-1" source="UkmJgFslX8RdrZe-EppO-18" target="UkmJgFslX8RdrZe-EppO-22" edge="1">
          <mxGeometry width="160" relative="1" as="geometry">
            <mxPoint x="975" y="650" as="sourcePoint" />
            <mxPoint x="760" y="610" as="targetPoint" />
          </mxGeometry>
        </mxCell>
        <mxCell id="UkmJgFslX8RdrZe-EppO-30" value="" style="endArrow=block;endSize=10;endFill=0;shadow=0;strokeWidth=1;rounded=0;edgeStyle=elbowEdgeStyle;elbow=vertical;entryX=0.25;entryY=1;entryDx=0;entryDy=0;exitX=0.5;exitY=0;exitDx=0;exitDy=0;" parent="WIyWlLk6GJQsqaUBKTNV-1" source="UkmJgFslX8RdrZe-EppO-35" target="UkmJgFslX8RdrZe-EppO-23" edge="1">
          <mxGeometry width="160" relative="1" as="geometry">
            <mxPoint x="380" y="500" as="sourcePoint" />
            <mxPoint x="770" y="620" as="targetPoint" />
          </mxGeometry>
        </mxCell>
        <mxCell id="UkmJgFslX8RdrZe-EppO-31" value="" style="endArrow=block;endSize=10;endFill=0;shadow=0;strokeWidth=1;rounded=0;edgeStyle=elbowEdgeStyle;elbow=vertical;entryX=0.25;entryY=1;entryDx=0;entryDy=0;exitX=0.5;exitY=0;exitDx=0;exitDy=0;" parent="WIyWlLk6GJQsqaUBKTNV-1" source="UkmJgFslX8RdrZe-EppO-36" target="UkmJgFslX8RdrZe-EppO-23" edge="1">
          <mxGeometry width="160" relative="1" as="geometry">
            <mxPoint x="985" y="660" as="sourcePoint" />
            <mxPoint x="770" y="620" as="targetPoint" />
          </mxGeometry>
        </mxCell>
        <mxCell id="UkmJgFslX8RdrZe-EppO-32" value="Pro SDK geometries are &lt;b&gt;immutable!&lt;/b&gt;&lt;br&gt;Use builder classes to create geometries.&lt;br&gt;Builder classes are not shown here.&lt;br&gt;Many properties and methods omitted here.&lt;br&gt;Z and M stuff has been omitted entirely." style="text;html=1;strokeColor=#d6b656;fillColor=#fff2cc;align=left;verticalAlign=middle;whiteSpace=wrap;rounded=0;fontSize=12;sketch=1;shadow=0;spacingLeft=2;spacingTop=2;" parent="WIyWlLk6GJQsqaUBKTNV-1" vertex="1">
          <mxGeometry x="540" y="80" width="250" height="80" as="geometry" />
        </mxCell>
        <mxCell id="UkmJgFslX8RdrZe-EppO-33" value="" style="endArrow=block;endSize=10;endFill=0;shadow=0;strokeWidth=1;rounded=0;edgeStyle=elbowEdgeStyle;elbow=vertical;entryX=0.5;entryY=1;entryDx=0;entryDy=0;exitX=0.5;exitY=0;exitDx=0;exitDy=0;" parent="WIyWlLk6GJQsqaUBKTNV-1" source="UkmJgFslX8RdrZe-EppO-24" target="UkmJgFslX8RdrZe-EppO-22" edge="1">
          <mxGeometry width="160" relative="1" as="geometry">
            <mxPoint x="390" y="510" as="sourcePoint" />
            <mxPoint x="545" y="480" as="targetPoint" />
          </mxGeometry>
        </mxCell>
        <mxCell id="UkmJgFslX8RdrZe-EppO-34" value="" style="endArrow=block;endSize=10;endFill=0;shadow=0;strokeWidth=1;rounded=0;edgeStyle=elbowEdgeStyle;elbow=vertical;entryX=0.5;entryY=1;entryDx=0;entryDy=0;exitX=0.5;exitY=0;exitDx=0;exitDy=0;" parent="WIyWlLk6GJQsqaUBKTNV-1" source="UkmJgFslX8RdrZe-EppO-25" target="UkmJgFslX8RdrZe-EppO-22" edge="1">
          <mxGeometry width="160" relative="1" as="geometry">
            <mxPoint x="920" y="330" as="sourcePoint" />
            <mxPoint x="380" y="290" as="targetPoint" />
          </mxGeometry>
        </mxCell>
        <mxCell id="UkmJgFslX8RdrZe-EppO-35" value="&lt;font&gt;&lt;b&gt;&lt;font style=&quot;font-size: 14px&quot;&gt;Polyline&lt;/font&gt;&lt;/b&gt;&lt;span style=&quot;font-size: 13px&quot;&gt; (sealed)&lt;/span&gt;&lt;/font&gt;&lt;br&gt;Area = 0.0" style="text;html=1;strokeColor=#6c8ebf;fillColor=#dae8fc;align=left;verticalAlign=top;whiteSpace=wrap;rounded=0;fontSize=12;spacingLeft=4;spacingTop=2;" parent="WIyWlLk6GJQsqaUBKTNV-1" vertex="1">
          <mxGeometry x="290" y="540" width="120" height="80" as="geometry" />
        </mxCell>
        <mxCell id="UkmJgFslX8RdrZe-EppO-36" value="&lt;font&gt;&lt;b&gt;&lt;font style=&quot;font-size: 14px&quot;&gt;Polygon&lt;/font&gt;&lt;/b&gt;&lt;span style=&quot;font-size: 13px&quot;&gt; (sealed)&lt;/span&gt;&lt;/font&gt;&lt;br&gt;ExteriorRingCount&lt;br&gt;IsExteriorRing(index)&lt;br&gt;GetExteriorRing(index)&lt;br&gt;&lt;i&gt;Rings returned as Polygons.&lt;br&gt;Use Parts property to get exterior &lt;u&gt;and&lt;/u&gt; interior rings.&lt;/i&gt;" style="text;html=1;strokeColor=#6c8ebf;fillColor=#dae8fc;align=left;verticalAlign=top;whiteSpace=wrap;rounded=0;fontSize=12;spacingLeft=4;spacingTop=2;" parent="WIyWlLk6GJQsqaUBKTNV-1" vertex="1">
          <mxGeometry x="420" y="540" width="170" height="120" as="geometry" />
        </mxCell>
        <mxCell id="UkmJgFslX8RdrZe-EppO-37" value="&lt;font&gt;&lt;b&gt;&lt;font style=&quot;font-size: 14px&quot;&gt;Segment&lt;/font&gt;&lt;/b&gt;&lt;span style=&quot;font-size: 13px&quot;&gt; (abstract)&lt;/span&gt;&lt;/font&gt;&lt;br&gt;StartPoint, EndPoint: MapPoint&lt;br&gt;StartCoordiate, EndCoordiante&lt;br&gt;SegmentType: enum&lt;br&gt;IsCurve&lt;br&gt;Length" style="text;html=1;strokeColor=#666666;fillColor=#f5f5f5;align=left;verticalAlign=top;whiteSpace=wrap;rounded=0;fontSize=12;spacingLeft=4;spacingTop=2;fontColor=#333333;" parent="WIyWlLk6GJQsqaUBKTNV-1" vertex="1">
          <mxGeometry x="770" y="460" width="180" height="100" as="geometry" />
        </mxCell>
        <mxCell id="UkmJgFslX8RdrZe-EppO-38" value="&lt;font&gt;&lt;b&gt;&lt;font style=&quot;font-size: 14px&quot;&gt;LineSegment&lt;/font&gt;&lt;/b&gt;&lt;span style=&quot;font-size: 13px&quot;&gt; (sealed)&lt;/span&gt;&lt;/font&gt;&lt;br&gt;IsCurve = false&lt;br&gt;Angle&amp;nbsp;&amp;nbsp;&lt;i&gt;// rad, ccw from +x&lt;/i&gt;" style="text;html=1;strokeColor=#6c8ebf;fillColor=#dae8fc;align=left;verticalAlign=top;whiteSpace=wrap;rounded=0;fontSize=12;spacingLeft=4;spacingTop=2;" parent="WIyWlLk6GJQsqaUBKTNV-1" vertex="1">
          <mxGeometry x="610" y="600" width="150" height="60" as="geometry" />
        </mxCell>
        <mxCell id="UkmJgFslX8RdrZe-EppO-39" value="&lt;font&gt;&lt;b&gt;&lt;font style=&quot;font-size: 14px&quot;&gt;CubicBezierSegment&lt;/font&gt;&lt;/b&gt;&lt;span style=&quot;font-size: 13px&quot;&gt; (s&#39;d)&lt;/span&gt;&lt;/font&gt;&lt;br&gt;IsCurve = true&lt;br&gt;ControlPoint1: Coordinate2D&lt;br&gt;ControlPoint2: Coordiante2D&lt;br&gt;Get2DEnvelope(): Envelope" style="text;html=1;strokeColor=#6c8ebf;fillColor=#dae8fc;align=left;verticalAlign=top;whiteSpace=wrap;rounded=0;fontSize=12;spacingLeft=4;spacingTop=2;" parent="WIyWlLk6GJQsqaUBKTNV-1" vertex="1">
          <mxGeometry x="770" y="600" width="180" height="90" as="geometry" />
        </mxCell>
        <mxCell id="UkmJgFslX8RdrZe-EppO-40" value="&lt;font&gt;&lt;b&gt;&lt;font style=&quot;font-size: 14px&quot;&gt;EllipticArcSegment&lt;/font&gt;&lt;/b&gt;&lt;span style=&quot;font-size: 13px&quot;&gt;&amp;nbsp;(s&#39;d)&lt;/span&gt;&lt;/font&gt;&lt;br&gt;IsCurve = true&lt;br&gt;IsCurcular&lt;br&gt;CentralAngle, RotationAngle&lt;br&gt;StartAngle, EndAngle&lt;br&gt;IsMinor&lt;br&gt;IsCounterClockwise&lt;br&gt;Semi{Major,Minor}Axis&lt;br&gt;MinorMajorRatio&lt;br&gt;CentralPoint: Coordiante2D&lt;br&gt;Get2DEnvelope(): Envelope" style="text;html=1;strokeColor=#6c8ebf;fillColor=#dae8fc;align=left;verticalAlign=top;whiteSpace=wrap;rounded=0;fontSize=12;spacingLeft=4;spacingTop=2;" parent="WIyWlLk6GJQsqaUBKTNV-1" vertex="1">
          <mxGeometry x="960" y="600" width="170" height="170" as="geometry" />
        </mxCell>
        <mxCell id="UkmJgFslX8RdrZe-EppO-42" value="" style="endArrow=block;endSize=10;endFill=0;shadow=0;strokeWidth=1;rounded=0;edgeStyle=elbowEdgeStyle;elbow=vertical;entryX=0.5;entryY=1;entryDx=0;entryDy=0;exitX=0.5;exitY=0;exitDx=0;exitDy=0;" parent="WIyWlLk6GJQsqaUBKTNV-1" source="UkmJgFslX8RdrZe-EppO-38" target="UkmJgFslX8RdrZe-EppO-37" edge="1">
          <mxGeometry width="160" relative="1" as="geometry">
            <mxPoint x="370" y="570" as="sourcePoint" />
            <mxPoint x="480" y="520" as="targetPoint" />
          </mxGeometry>
        </mxCell>
        <mxCell id="UkmJgFslX8RdrZe-EppO-43" value="" style="endArrow=block;endSize=10;endFill=0;shadow=0;strokeWidth=1;rounded=0;edgeStyle=elbowEdgeStyle;elbow=vertical;entryX=0.5;entryY=1;entryDx=0;entryDy=0;" parent="WIyWlLk6GJQsqaUBKTNV-1" source="UkmJgFslX8RdrZe-EppO-39" target="UkmJgFslX8RdrZe-EppO-37" edge="1">
          <mxGeometry width="160" relative="1" as="geometry">
            <mxPoint x="380" y="580" as="sourcePoint" />
            <mxPoint x="490" y="530" as="targetPoint" />
          </mxGeometry>
        </mxCell>
        <mxCell id="UkmJgFslX8RdrZe-EppO-44" value="" style="endArrow=block;endSize=10;endFill=0;shadow=0;strokeWidth=1;rounded=0;edgeStyle=elbowEdgeStyle;elbow=vertical;entryX=0.5;entryY=1;entryDx=0;entryDy=0;" parent="WIyWlLk6GJQsqaUBKTNV-1" source="UkmJgFslX8RdrZe-EppO-40" target="UkmJgFslX8RdrZe-EppO-37" edge="1">
          <mxGeometry width="160" relative="1" as="geometry">
            <mxPoint x="390" y="590" as="sourcePoint" />
            <mxPoint x="500" y="540" as="targetPoint" />
          </mxGeometry>
        </mxCell>
        <mxCell id="UkmJgFslX8RdrZe-EppO-46" value="ToEsriShape() returns a byte array that is Esri&#39;s internal serialization format and corresponds to the Shapefile specification with additions for non-linear segments and vertex IDs." style="text;html=1;strokeColor=#d6b656;fillColor=#fff2cc;align=left;verticalAlign=middle;whiteSpace=wrap;rounded=0;fontSize=12;sketch=1;shadow=0;spacingLeft=2;spacingTop=2;" parent="WIyWlLk6GJQsqaUBKTNV-1" vertex="1">
          <mxGeometry x="495" y="220" width="265" height="70" as="geometry" />
        </mxCell>
        <mxCell id="UkmJgFslX8RdrZe-EppO-47" value="Exterior rings: clockwise&lt;br&gt;Interior rings: ccw." style="text;html=1;strokeColor=#d6b656;fillColor=#fff2cc;align=left;verticalAlign=middle;whiteSpace=wrap;rounded=0;fontSize=12;sketch=1;shadow=0;spacingLeft=2;spacingTop=2;" parent="WIyWlLk6GJQsqaUBKTNV-1" vertex="1">
          <mxGeometry x="610" y="520" width="140" height="40" as="geometry" />
        </mxCell>
        <mxCell id="UkmJgFslX8RdrZe-EppO-48" value="Coordinate2D is &lt;br&gt;a lightweight point, &lt;br&gt;just a pair of X and Y" style="text;html=1;strokeColor=#d6b656;fillColor=#fff2cc;align=left;verticalAlign=middle;whiteSpace=wrap;rounded=0;fontSize=12;sketch=1;shadow=0;spacingLeft=2;spacingTop=2;" parent="WIyWlLk6GJQsqaUBKTNV-1" vertex="1">
          <mxGeometry x="465" y="705" width="125" height="40" as="geometry" />
        </mxCell>
        <mxCell id="2AtHYgqKLjP69ofNXuWl-0" value="ujr/2022-11-21" style="text;html=1;strokeColor=none;fillColor=none;align=right;verticalAlign=middle;whiteSpace=wrap;rounded=0;fontSize=8;" parent="WIyWlLk6GJQsqaUBKTNV-1" vertex="1">
          <mxGeometry x="1020" y="780" width="100" height="20" as="geometry" />
        </mxCell>
      </root>
    </mxGraphModel>
  </diagram>
  <diagram id="YRR31LYvMi-BcquAQ03u" name="Builder">
    <mxGraphModel dx="960" dy="807" grid="1" gridSize="10" guides="1" tooltips="1" connect="1" arrows="1" fold="1" page="1" pageScale="1" pageWidth="1169" pageHeight="827" math="0" shadow="0">
      <root>
        <mxCell id="LDEIYuuB5KNWDbqVoas7-0" />
        <mxCell id="LDEIYuuB5KNWDbqVoas7-1" parent="LDEIYuuB5KNWDbqVoas7-0" />
        <mxCell id="KbFqJV_9PSHPCPF1_QKi-0" value="&lt;b&gt;&lt;font style=&quot;font-size: 14px&quot;&gt;GeometryBuilderEx&lt;/font&gt;&lt;/b&gt;&amp;nbsp;(abstract)&lt;br&gt;GeometryType: enum&lt;br&gt;SpatialReference&lt;br&gt;HasZ, HasM, HasID&lt;br&gt;IsEmpty&lt;br&gt;SetEmpty()&lt;br&gt;ToGeometry(): Geometry&lt;br&gt;static ReplaceSpatialReference(&lt;i&gt;geom&lt;/i&gt;, &lt;i&gt;sref&lt;/i&gt;)" style="text;html=1;strokeColor=#666666;fillColor=#f5f5f5;align=left;verticalAlign=top;whiteSpace=wrap;rounded=0;fontSize=12;spacingLeft=4;spacingTop=2;fontColor=#333333;" parent="LDEIYuuB5KNWDbqVoas7-1" vertex="1">
          <mxGeometry x="400" y="100" width="260" height="130" as="geometry" />
        </mxCell>
        <mxCell id="iB4_Z-2agWJHN7LwsxSE-0" value="&lt;b&gt;&lt;font style=&quot;font-size: 14px&quot;&gt;EnvelopeBuilderEx&lt;/font&gt;&lt;/b&gt;&amp;nbsp;(sealed)&lt;br&gt;&lt;i&gt;various constructors&lt;/i&gt;&lt;br&gt;XMin, YMin, XMax, YMax: double&lt;br&gt;ZMin, ZMax, MMin, MMax: double&lt;br&gt;IDMin, IDMax: int&lt;br&gt;SetXYCoords(&lt;i&gt;c1&lt;/i&gt;, c2)&lt;br&gt;SetZCoords(&lt;i&gt;z1&lt;/i&gt;, &lt;i&gt;z2&lt;/i&gt;)&lt;br&gt;SetMCoords(&lt;i&gt;m1&lt;/i&gt;, &lt;i&gt;m2&lt;/i&gt;)&lt;br&gt;SetCoords(&lt;i&gt;env&lt;/i&gt;)&lt;br&gt;Center: MapPoint&lt;br&gt;CenterCoordinate: Coordinate2D&lt;br&gt;Width, Height, Depth: double&lt;br&gt;IsEqual(&lt;i&gt;other&lt;/i&gt;): bool&lt;br&gt;Expand(...)&lt;br&gt;Union(&lt;i&gt;env&lt;/i&gt;)&lt;br&gt;Intersection(&lt;i&gt;env&lt;/i&gt;)&lt;br&gt;Intersects(&lt;i&gt;env&lt;/i&gt;): bool&lt;br&gt;static CreateEnvelope(...)&lt;br&gt;static FromEsriShape(...)&lt;br&gt;static FromJson/Xml(...)" style="text;html=1;strokeColor=#6c8ebf;fillColor=#dae8fc;align=left;verticalAlign=top;whiteSpace=wrap;rounded=0;fontSize=12;spacingLeft=6;spacingTop=2;" parent="LDEIYuuB5KNWDbqVoas7-1" vertex="1">
          <mxGeometry x="40" y="280" width="210" height="300" as="geometry" />
        </mxCell>
        <mxCell id="PM0Jz_ldi3oG69VnkTsQ-0" value="&lt;font&gt;&lt;b&gt;&lt;font style=&quot;font-size: 14px&quot;&gt;MapPointBuilderEx&lt;/font&gt;&lt;/b&gt;&lt;span style=&quot;font-size: 13px&quot;&gt; (sealed)&lt;/span&gt;&lt;/font&gt;&lt;br&gt;&lt;i&gt;various constructors&lt;/i&gt;&lt;br&gt;X, Y, Z, M: double&lt;br&gt;ID: int&lt;br&gt;SetValues(&lt;i&gt;x&lt;/i&gt;, &lt;i&gt;y&lt;/i&gt;[, &lt;i&gt;z&lt;/i&gt;[, &lt;i&gt;m&lt;/i&gt;[, &lt;i&gt;id&lt;/i&gt;]]])&lt;br&gt;IsEqual(&lt;i&gt;other&lt;/i&gt;): bool&lt;br&gt;ToGeometry(): MapPoint&lt;br&gt;static CreateMapPoint(...)&lt;br&gt;static FromEsriShape(...)&lt;br&gt;static FromJson/Xml(...)" style="text;html=1;strokeColor=#6c8ebf;fillColor=#dae8fc;align=left;verticalAlign=top;whiteSpace=wrap;rounded=0;fontSize=12;spacingLeft=4;spacingTop=2;" parent="LDEIYuuB5KNWDbqVoas7-1" vertex="1">
          <mxGeometry x="490" y="280" width="200" height="160" as="geometry" />
        </mxCell>
        <mxCell id="_hlN446c7pTFrcPll1Q8-0" value="&lt;font&gt;&lt;b&gt;&lt;font style=&quot;font-size: 14px&quot;&gt;MultipointBuliderEx&lt;/font&gt;&lt;/b&gt;&lt;span style=&quot;font-size: 13px&quot;&gt; (sealed)&lt;/span&gt;&lt;/font&gt;&lt;br&gt;&lt;i&gt;various constructors&lt;/i&gt;&lt;br&gt;PointCount: int&lt;br&gt;Coordinate2Ds: IList&amp;lt;Coord2D&amp;gt;&lt;br&gt;Zs, Ms: IList&amp;lt;double&amp;gt;&lt;br&gt;IDs: IList&amp;lt;int&amp;gt;&lt;br&gt;GetPoint(&lt;i&gt;index&lt;/i&gt;): MapPoint&lt;br&gt;AddPoint(...)&lt;br&gt;InsertPoint(&lt;i&gt;index&lt;/i&gt;, ...)&lt;br&gt;SetPoint(&lt;i&gt;index&lt;/i&gt;, ...)&lt;br&gt;AddPoints(IEnumerable&amp;lt;...&amp;gt;)&lt;br&gt;InsertPoints(&lt;i&gt;index&lt;/i&gt;, IEnumerable&amp;lt;...&amp;gt;)&lt;br&gt;RemovePoint(&lt;i&gt;index&lt;/i&gt;)&lt;br&gt;RemovePoints(&lt;i&gt;fromIndex&lt;/i&gt;, &lt;i&gt;toIndex&lt;/i&gt;)&lt;br&gt;IsEqual(&lt;i&gt;other&lt;/i&gt;): bool&lt;br&gt;ToGeometry(): Multipoint&lt;br&gt;static CreateMultipoint(...)&lt;br&gt;static FromEsriShape(...)&lt;br&gt;static FromJson/Xml(...)" style="text;html=1;strokeColor=#6c8ebf;fillColor=#dae8fc;align=left;verticalAlign=top;whiteSpace=wrap;rounded=0;fontSize=12;spacingLeft=4;spacingTop=2;" parent="LDEIYuuB5KNWDbqVoas7-1" vertex="1">
          <mxGeometry x="700" y="280" width="220" height="290" as="geometry" />
        </mxCell>
        <mxCell id="cgkL62hLi-NNz0ETYNTf-0" value="&lt;b&gt;&lt;font style=&quot;font-size: 14px&quot;&gt;MultipartBuilderEx&lt;/font&gt;&lt;/b&gt;&amp;nbsp;(abstract)&lt;br&gt;- list of list of segments&lt;br&gt;PartCount: int&lt;br&gt;Parts: list of list of segment&lt;br&gt;AddPart(&lt;i&gt;...&lt;/i&gt;)&lt;br&gt;AddParts(&lt;i&gt;parts&lt;/i&gt;)&lt;br&gt;AddSegment(&lt;i&gt;segment&lt;/i&gt;, ...)&lt;br&gt;InsertPart(&lt;i&gt;index&lt;/i&gt;, ...)&lt;br&gt;InsertSegment(&lt;i&gt;index&lt;/i&gt;, &lt;i&gt;index&lt;/i&gt;, &lt;i&gt;seg&lt;/i&gt;)&lt;br&gt;InsertSegments(&lt;i&gt;index&lt;/i&gt;, &lt;i&gt;index&lt;/i&gt;, &lt;i&gt;segs&lt;/i&gt;)&lt;br&gt;RemoveSegment(&lt;i&gt;idx&lt;/i&gt;, &lt;i&gt;idx&lt;/i&gt;, &lt;i&gt;closeGap&lt;/i&gt;)&lt;br&gt;ReplaceSegment(&lt;i&gt;index&lt;/i&gt;, &lt;i&gt;index&lt;/i&gt;, &lt;i&gt;seg&lt;/i&gt;)&lt;br&gt;RemovePart(&lt;i&gt;index&lt;/i&gt;)&lt;br&gt;RemoveParts(&lt;i&gt;fromIndex&lt;/i&gt;, &lt;i&gt;toIndex&lt;/i&gt;)&lt;br&gt;GetSegment(&lt;i&gt;index&lt;/i&gt;, &lt;i&gt;index&lt;/i&gt;)&lt;br&gt;GetSegmentCount(&lt;i&gt;index&lt;/i&gt;)&lt;br&gt;IsEqual(&lt;i&gt;other&lt;/i&gt;): bool&lt;br&gt;ReverseOrientation()" style="text;html=1;strokeColor=#666666;fillColor=#f5f5f5;align=left;verticalAlign=top;whiteSpace=wrap;rounded=0;fontSize=12;spacingLeft=4;spacingTop=2;fontColor=#333333;" parent="LDEIYuuB5KNWDbqVoas7-1" vertex="1">
          <mxGeometry x="260" y="280" width="220" height="270" as="geometry" />
        </mxCell>
        <mxCell id="Haq7kkKl-TBovUHu3Ez--0" value="&lt;b&gt;&lt;font style=&quot;font-size: 14px&quot;&gt;AttributeFlags&lt;/font&gt;&lt;/b&gt; (enum)&lt;br&gt;None = 0&lt;br&gt;HasZ = 1&lt;br&gt;HasM = 2&lt;br&gt;HasID = 4&lt;br&gt;AllAttributes = 7" style="text;html=1;strokeColor=#d79b00;fillColor=#ffe6cc;align=left;verticalAlign=middle;whiteSpace=wrap;rounded=0;fontSize=12;spacingLeft=4;" parent="LDEIYuuB5KNWDbqVoas7-1" vertex="1">
          <mxGeometry x="710" y="130" width="150" height="100" as="geometry" />
        </mxCell>
        <mxCell id="XQ4tiCg6UeJG_a5QrHT5-0" value="&lt;b&gt;&lt;font style=&quot;font-size: 14px&quot;&gt;MultipatchBuilderEx&lt;/font&gt;&lt;/b&gt;&amp;nbsp;(sealed)&lt;br&gt;" style="text;html=1;strokeColor=#6c8ebf;fillColor=#dae8fc;align=left;verticalAlign=top;whiteSpace=wrap;rounded=0;fontSize=12;spacingLeft=4;spacingTop=2;" parent="LDEIYuuB5KNWDbqVoas7-1" vertex="1">
          <mxGeometry x="930" y="280" width="220" height="70" as="geometry" />
        </mxCell>
        <mxCell id="XQ4tiCg6UeJG_a5QrHT5-1" value="&lt;b&gt;&lt;font style=&quot;font-size: 14px&quot;&gt;GeometryBagBuilderEx&lt;/font&gt;&lt;/b&gt;&amp;nbsp;(sealed)&lt;br&gt;- list of geometries&lt;br&gt;" style="text;html=1;strokeColor=#6c8ebf;fillColor=#dae8fc;align=left;verticalAlign=top;whiteSpace=wrap;rounded=0;fontSize=12;spacingLeft=4;spacingTop=2;" parent="LDEIYuuB5KNWDbqVoas7-1" vertex="1">
          <mxGeometry x="930" y="379" width="220" height="70" as="geometry" />
        </mxCell>
        <mxCell id="Pot_PJHB6iKpun23nMM6-0" value="&lt;font&gt;&lt;b&gt;&lt;font style=&quot;font-size: 14px&quot;&gt;PolylineBuilderEx&lt;/font&gt;&lt;/b&gt;&lt;span style=&quot;font-size: 13px&quot;&gt; (sealed)&lt;/span&gt;&lt;/font&gt;&lt;br&gt;various constructors&lt;br&gt;ToGeometry(): Polyline&lt;br&gt;SplitAtDistance(...) // last part&lt;br&gt;SplitPartAtDistance(...): int // new seg idx&lt;br&gt;static CreatePolyline(...)&lt;br&gt;static FromEsriShape(...)&lt;br&gt;static FromJson/Xml(...)" style="text;html=1;strokeColor=#6c8ebf;fillColor=#dae8fc;align=left;verticalAlign=top;whiteSpace=wrap;rounded=0;fontSize=12;spacingLeft=4;spacingTop=2;" parent="LDEIYuuB5KNWDbqVoas7-1" vertex="1">
          <mxGeometry x="40" y="630" width="230" height="130" as="geometry" />
        </mxCell>
        <mxCell id="Pot_PJHB6iKpun23nMM6-1" value="&lt;font&gt;&lt;b&gt;&lt;font style=&quot;font-size: 14px&quot;&gt;PolygonBuilderEx&lt;/font&gt;&lt;/b&gt;&lt;span style=&quot;font-size: 13px&quot;&gt; (sealed)&lt;/span&gt;&lt;/font&gt;&lt;br&gt;various constructors&lt;br&gt;ToGeometry(): Polygon&lt;br&gt;SplitAtDistance(...) // last part&lt;br&gt;SplitPartAtDistance(...): int // new seg idx&lt;br&gt;static CreatePolygon(...)&lt;br&gt;static FromEsriShape(...)&lt;br&gt;static FromJson/Xml(...)" style="text;html=1;strokeColor=#6c8ebf;fillColor=#dae8fc;align=left;verticalAlign=top;whiteSpace=wrap;rounded=0;fontSize=12;spacingLeft=4;spacingTop=2;" parent="LDEIYuuB5KNWDbqVoas7-1" vertex="1">
          <mxGeometry x="280" y="630" width="230" height="130" as="geometry" />
        </mxCell>
        <mxCell id="6uxKGOB-OpBS8nr59lZ7-0" value="Pro SDK Geometry Builders" style="text;align=left;fontStyle=1;verticalAlign=middle;spacingLeft=3;spacingRight=3;strokeColor=none;rotatable=0;points=[[0,0.5],[1,0.5]];portConstraint=eastwest;fontSize=24;whiteSpace=wrap;html=1;" parent="LDEIYuuB5KNWDbqVoas7-1" vertex="1">
          <mxGeometry x="80" y="40" width="400" height="40" as="geometry" />
        </mxCell>
        <mxCell id="6uxKGOB-OpBS8nr59lZ7-1" value="Pro&#39;s geometry classes are immutable. &lt;br&gt;They can only be created, through the use of geometry builder classes. There are two generations of builder classes: new ones with names ending in Ex (shown here), and old ones that had to be explicitly disposed of.&lt;br&gt;For performance reasons, builder geometries are not validated/simplified: anything goes!" style="text;html=1;strokeColor=none;fillColor=none;align=left;verticalAlign=top;whiteSpace=wrap;rounded=0;" parent="LDEIYuuB5KNWDbqVoas7-1" vertex="1">
          <mxGeometry x="80" y="100" width="250" height="120" as="geometry" />
        </mxCell>
        <mxCell id="OQesCvVOLkmc3ZJwGJXk-0" value="" style="endArrow=block;endSize=10;endFill=0;shadow=0;strokeWidth=1;rounded=0;edgeStyle=elbowEdgeStyle;elbow=vertical;entryX=0.5;entryY=1;entryDx=0;entryDy=0;exitX=0.5;exitY=0;exitDx=0;exitDy=0;" parent="LDEIYuuB5KNWDbqVoas7-1" source="PM0Jz_ldi3oG69VnkTsQ-0" target="KbFqJV_9PSHPCPF1_QKi-0" edge="1">
          <mxGeometry width="160" relative="1" as="geometry">
            <mxPoint x="350" y="540" as="sourcePoint" />
            <mxPoint x="470" y="500" as="targetPoint" />
          </mxGeometry>
        </mxCell>
        <mxCell id="OQesCvVOLkmc3ZJwGJXk-1" value="" style="endArrow=block;endSize=10;endFill=0;shadow=0;strokeWidth=1;rounded=0;edgeStyle=elbowEdgeStyle;elbow=vertical;entryX=0.5;entryY=1;entryDx=0;entryDy=0;exitX=0.5;exitY=0;exitDx=0;exitDy=0;" parent="LDEIYuuB5KNWDbqVoas7-1" source="cgkL62hLi-NNz0ETYNTf-0" target="KbFqJV_9PSHPCPF1_QKi-0" edge="1">
          <mxGeometry width="160" relative="1" as="geometry">
            <mxPoint x="360" y="550" as="sourcePoint" />
            <mxPoint x="480" y="510" as="targetPoint" />
          </mxGeometry>
        </mxCell>
        <mxCell id="OQesCvVOLkmc3ZJwGJXk-2" value="" style="endArrow=block;endSize=10;endFill=0;shadow=0;strokeWidth=1;rounded=0;edgeStyle=elbowEdgeStyle;elbow=vertical;entryX=0.5;entryY=1;entryDx=0;entryDy=0;exitX=0.5;exitY=0;exitDx=0;exitDy=0;" parent="LDEIYuuB5KNWDbqVoas7-1" source="iB4_Z-2agWJHN7LwsxSE-0" target="KbFqJV_9PSHPCPF1_QKi-0" edge="1">
          <mxGeometry width="160" relative="1" as="geometry">
            <mxPoint x="370" y="560" as="sourcePoint" />
            <mxPoint x="490" y="520" as="targetPoint" />
          </mxGeometry>
        </mxCell>
        <mxCell id="OQesCvVOLkmc3ZJwGJXk-3" value="" style="endArrow=block;endSize=10;endFill=0;shadow=0;strokeWidth=1;rounded=0;edgeStyle=elbowEdgeStyle;elbow=vertical;exitX=0.5;exitY=0;exitDx=0;exitDy=0;entryX=0.5;entryY=1;entryDx=0;entryDy=0;" parent="LDEIYuuB5KNWDbqVoas7-1" source="Pot_PJHB6iKpun23nMM6-1" target="cgkL62hLi-NNz0ETYNTf-0" edge="1">
          <mxGeometry width="160" relative="1" as="geometry">
            <mxPoint x="380" y="570" as="sourcePoint" />
            <mxPoint x="620" y="620" as="targetPoint" />
            <Array as="points">
              <mxPoint x="380" y="600" />
            </Array>
          </mxGeometry>
        </mxCell>
        <mxCell id="OQesCvVOLkmc3ZJwGJXk-4" value="" style="endArrow=block;endSize=10;endFill=0;shadow=0;strokeWidth=1;rounded=0;edgeStyle=elbowEdgeStyle;elbow=vertical;entryX=0.5;entryY=1;entryDx=0;entryDy=0;exitX=0.75;exitY=0;exitDx=0;exitDy=0;" parent="LDEIYuuB5KNWDbqVoas7-1" source="Pot_PJHB6iKpun23nMM6-0" target="cgkL62hLi-NNz0ETYNTf-0" edge="1">
          <mxGeometry width="160" relative="1" as="geometry">
            <mxPoint x="390" y="580" as="sourcePoint" />
            <mxPoint x="510" y="540" as="targetPoint" />
            <Array as="points">
              <mxPoint x="260" y="600" />
            </Array>
          </mxGeometry>
        </mxCell>
        <mxCell id="OQesCvVOLkmc3ZJwGJXk-5" value="" style="endArrow=block;endSize=10;endFill=0;shadow=0;strokeWidth=1;rounded=0;edgeStyle=elbowEdgeStyle;elbow=vertical;entryX=0.5;entryY=1;entryDx=0;entryDy=0;exitX=0.5;exitY=0;exitDx=0;exitDy=0;" parent="LDEIYuuB5KNWDbqVoas7-1" source="_hlN446c7pTFrcPll1Q8-0" target="KbFqJV_9PSHPCPF1_QKi-0" edge="1">
          <mxGeometry width="160" relative="1" as="geometry">
            <mxPoint x="590" y="290" as="sourcePoint" />
            <mxPoint x="540" y="240" as="targetPoint" />
          </mxGeometry>
        </mxCell>
        <mxCell id="OQesCvVOLkmc3ZJwGJXk-6" value="" style="endArrow=block;endSize=10;endFill=0;shadow=0;strokeWidth=1;rounded=0;edgeStyle=elbowEdgeStyle;elbow=vertical;entryX=0.5;entryY=1;entryDx=0;entryDy=0;exitX=0.5;exitY=0;exitDx=0;exitDy=0;" parent="LDEIYuuB5KNWDbqVoas7-1" source="XQ4tiCg6UeJG_a5QrHT5-0" target="KbFqJV_9PSHPCPF1_QKi-0" edge="1">
          <mxGeometry width="160" relative="1" as="geometry">
            <mxPoint x="815" y="290" as="sourcePoint" />
            <mxPoint x="540" y="240" as="targetPoint" />
          </mxGeometry>
        </mxCell>
        <mxCell id="OQesCvVOLkmc3ZJwGJXk-7" value="&lt;b&gt;&lt;font style=&quot;font-size: 14px&quot;&gt;LineBuilderEx&lt;/font&gt;&lt;/b&gt;&amp;nbsp;(sealed)&lt;br&gt;&lt;i&gt;various constructors&lt;/i&gt;&lt;br&gt;static CreateLineSegment(...)&lt;br&gt;QueryCoords(out &lt;i&gt;P&lt;/i&gt;, out &lt;i&gt;Q&lt;/i&gt;)&lt;br&gt;SetCoords(&lt;i&gt;P&lt;/i&gt;, &lt;i&gt;Q&lt;/i&gt;)&lt;br&gt;ToSegment(): LineSegment" style="text;html=1;strokeColor=#6c8ebf;fillColor=#dae8fc;align=left;verticalAlign=top;whiteSpace=wrap;rounded=0;fontSize=12;spacingLeft=4;spacingTop=2;" parent="LDEIYuuB5KNWDbqVoas7-1" vertex="1">
          <mxGeometry x="530" y="650" width="170" height="100" as="geometry" />
        </mxCell>
        <mxCell id="OQesCvVOLkmc3ZJwGJXk-8" value="&lt;b&gt;&lt;font style=&quot;font-size: 14px&quot;&gt;SegmentBuilderEx&lt;/font&gt;&lt;/b&gt;&amp;nbsp;(abstract)&lt;br&gt;SegmentBuilderType: enum&lt;br&gt;StartPoint, EndPoint: MapPoint&lt;br&gt;SpatialReference&lt;br&gt;IsEmpty&lt;br&gt;SetEmpty()&lt;br&gt;ToSegment(): Segment&lt;br&gt;static ConstructSegmentBuilder(&lt;i&gt;seg&lt;/i&gt;)" style="text;html=1;strokeColor=#666666;fillColor=#f5f5f5;align=left;verticalAlign=top;whiteSpace=wrap;rounded=0;fontSize=12;spacingLeft=4;spacingTop=2;fontColor=#333333;" parent="LDEIYuuB5KNWDbqVoas7-1" vertex="1">
          <mxGeometry x="940" y="480" width="210" height="130" as="geometry" />
        </mxCell>
        <mxCell id="lSXSwNateJIoeV2PLCuO-0" value="&lt;b&gt;&lt;font style=&quot;font-size: 14px&quot;&gt;SegmentBuilderType&lt;/font&gt;&lt;/b&gt; (enum)&lt;br&gt;Line&lt;br&gt;CubicBezier&amp;nbsp; &amp;nbsp;&lt;i&gt;(3rd degree)&lt;/i&gt;&lt;br&gt;EllipticArc&amp;nbsp; &amp;nbsp;&lt;i&gt;(also circular)&lt;/i&gt;" style="text;html=1;strokeColor=#d79b00;fillColor=#ffe6cc;align=left;verticalAlign=middle;whiteSpace=wrap;rounded=0;fontSize=12;spacingLeft=4;" parent="LDEIYuuB5KNWDbqVoas7-1" vertex="1">
          <mxGeometry x="880" y="130" width="200" height="70" as="geometry" />
        </mxCell>
        <mxCell id="lSXSwNateJIoeV2PLCuO-1" value="&lt;b&gt;&lt;font style=&quot;font-size: 14px&quot;&gt;EllipticArcBuilderEx&lt;/font&gt;&lt;/b&gt;&amp;nbsp;(sealed)&lt;br&gt;&lt;i&gt;various constructors&lt;/i&gt;&lt;br&gt;CenterPoint: Coordinate2D&lt;br&gt;StartAngle, EndAngle,&amp;nbsp;CenterAngle, RotationAngle,&amp;nbsp;SemiMajorAxis, MinorMajorRatio,&amp;nbsp;Orientation&lt;br&gt;&lt;i&gt;and much more&lt;/i&gt;&lt;br&gt;ToSegment(): EllipticArcSegment" style="text;html=1;strokeColor=#6c8ebf;fillColor=#dae8fc;align=left;verticalAlign=top;whiteSpace=wrap;rounded=0;fontSize=12;spacingLeft=4;spacingTop=2;" parent="LDEIYuuB5KNWDbqVoas7-1" vertex="1">
          <mxGeometry x="940" y="650" width="200" height="130" as="geometry" />
        </mxCell>
        <mxCell id="lSXSwNateJIoeV2PLCuO-2" value="&lt;b&gt;&lt;font style=&quot;font-size: 14px&quot;&gt;CubicBezierBuilderEx&lt;/font&gt;&lt;/b&gt;&amp;nbsp;(sealed)&lt;br&gt;&lt;i&gt;various constructors&lt;/i&gt;&lt;br&gt;ControlPoint1, ControlPoint2: Coord2D&lt;br&gt;static CreateCubicBezierSegment(...)&lt;br&gt;QueryCoords(out:&amp;nbsp;&lt;i&gt;P&lt;/i&gt;, &lt;i&gt;C1&lt;/i&gt;, &lt;i&gt;C2&lt;/i&gt;,&amp;nbsp;&lt;i&gt;Q&lt;/i&gt;)&lt;br&gt;SetCoords(&lt;i&gt;P&lt;/i&gt;, &lt;i&gt;C1, C2, Q&lt;/i&gt;)&lt;br&gt;ToSegment(): CubicBezierSegment" style="text;html=1;strokeColor=#6c8ebf;fillColor=#dae8fc;align=left;verticalAlign=top;whiteSpace=wrap;rounded=0;fontSize=12;spacingLeft=4;spacingTop=2;" parent="LDEIYuuB5KNWDbqVoas7-1" vertex="1">
          <mxGeometry x="710" y="650" width="220" height="120" as="geometry" />
        </mxCell>
        <mxCell id="lSXSwNateJIoeV2PLCuO-3" value="" style="endArrow=block;endSize=10;endFill=0;shadow=0;strokeWidth=1;rounded=0;edgeStyle=elbowEdgeStyle;elbow=vertical;entryX=0.5;entryY=1;entryDx=0;entryDy=0;exitX=0.75;exitY=0;exitDx=0;exitDy=0;" parent="LDEIYuuB5KNWDbqVoas7-1" source="OQesCvVOLkmc3ZJwGJXk-7" target="OQesCvVOLkmc3ZJwGJXk-8" edge="1">
          <mxGeometry width="160" relative="1" as="geometry">
            <mxPoint x="165" y="660" as="sourcePoint" />
            <mxPoint x="380" y="560" as="targetPoint" />
          </mxGeometry>
        </mxCell>
        <mxCell id="lSXSwNateJIoeV2PLCuO-4" value="" style="endArrow=block;endSize=10;endFill=0;shadow=0;strokeWidth=1;rounded=0;edgeStyle=elbowEdgeStyle;elbow=vertical;entryX=0.5;entryY=1;entryDx=0;entryDy=0;exitX=0.5;exitY=0;exitDx=0;exitDy=0;" parent="LDEIYuuB5KNWDbqVoas7-1" source="lSXSwNateJIoeV2PLCuO-2" target="OQesCvVOLkmc3ZJwGJXk-8" edge="1">
          <mxGeometry width="160" relative="1" as="geometry">
            <mxPoint x="625" y="660" as="sourcePoint" />
            <mxPoint x="1055" y="620" as="targetPoint" />
          </mxGeometry>
        </mxCell>
        <mxCell id="lSXSwNateJIoeV2PLCuO-5" value="" style="endArrow=block;endSize=10;endFill=0;shadow=0;strokeWidth=1;rounded=0;edgeStyle=elbowEdgeStyle;elbow=vertical;entryX=0.5;entryY=1;entryDx=0;entryDy=0;exitX=0.75;exitY=0;exitDx=0;exitDy=0;" parent="LDEIYuuB5KNWDbqVoas7-1" source="lSXSwNateJIoeV2PLCuO-1" target="OQesCvVOLkmc3ZJwGJXk-8" edge="1">
          <mxGeometry width="160" relative="1" as="geometry">
            <mxPoint x="830" y="660" as="sourcePoint" />
            <mxPoint x="1055" y="620" as="targetPoint" />
          </mxGeometry>
        </mxCell>
      </root>
    </mxGraphModel>
  </diagram>
  <diagram id="YObAv4SwNWO2kesmdwAg" name="SRef">
    <mxGraphModel dx="960" dy="828" grid="1" gridSize="10" guides="1" tooltips="1" connect="1" arrows="1" fold="1" page="1" pageScale="1" pageWidth="827" pageHeight="1169" math="0" shadow="0">
      <root>
        <mxCell id="0" />
        <mxCell id="1" parent="0" />
        <mxCell id="OS7vkZoAS99N_SbgtaUs-1" value="Pro SDK Spatial Reference" style="text;align=left;fontStyle=1;verticalAlign=middle;spacingLeft=3;spacingRight=3;strokeColor=none;rotatable=0;points=[[0,0.5],[1,0.5]];portConstraint=eastwest;fontSize=24;whiteSpace=wrap;html=1;" vertex="1" parent="1">
          <mxGeometry x="80" y="40" width="400" height="40" as="geometry" />
        </mxCell>
        <mxCell id="zOnFc6zO_iKzi0nCesa2-1" value="&lt;b&gt;&lt;font style=&quot;font-size: 14px&quot;&gt;SpatialReference&lt;/font&gt;&lt;/b&gt;&amp;nbsp;(sealed)&lt;br&gt;&lt;div&gt;Name: string&lt;/div&gt;Wkid: int // well-known ID&lt;div&gt;LatestWkid: int // e.g. ... for ...&lt;/div&gt;&lt;div&gt;Wkt: string // WKT representation of this spatial reference&lt;/div&gt;&lt;div&gt;&lt;span style=&quot;background-color: initial;&quot;&gt;GetWkt2(WktFormatMode): string // same with formatting control&lt;/span&gt;&lt;br&gt;&lt;/div&gt;&lt;div&gt;Unit: Unit // unit of the XY (horizontal) coordinates&lt;/div&gt;&lt;div&gt;GetPCSHorizon(out bool isInclusive): Polygon&lt;/div&gt;&lt;div&gt;&lt;br&gt;&lt;/div&gt;&lt;div&gt;Gcs: SpatialReference // underlying GCS&lt;/div&gt;&lt;div&gt;&lt;div&gt;&lt;span style=&quot;background-color: initial;&quot;&gt;GcsWkid: int // WKID of the underlying GCS&lt;/span&gt;&lt;br&gt;&lt;/div&gt;&lt;div&gt;GcsWkt: string // WKT of the underlying GCS&lt;/div&gt;&lt;div&gt;CentralMeridian: double // relative to Greenwich&lt;/div&gt;&lt;div&gt;LeftLongitude, RightLongitude: double&lt;/div&gt;&lt;div&gt;Datum: Datum // the horizontal datum&lt;/div&gt;&lt;div&gt;GetGCSHorizon(): Envelope&lt;/div&gt;&lt;div&gt;&lt;br&gt;&lt;/div&gt;&lt;div&gt;IsGeographic: bool&lt;/div&gt;&lt;div&gt;IsProjected: bool&lt;/div&gt;&lt;div&gt;IsImage: bool&lt;/div&gt;&lt;div&gt;IsUnknown: bool&lt;/div&gt;&lt;div&gt;IsPannable: bool&lt;/div&gt;&lt;div&gt;&lt;br&gt;&lt;/div&gt;&lt;div&gt;HasVcs: bool // true iff VcsWkid &amp;gt; 0 or VcsWkt not null nor empty&lt;/div&gt;&lt;div&gt;VcsWkid: int // WKID of the associated VCS&lt;/div&gt;&lt;div&gt;VcsWkt: string // WKT of the associated VCS&lt;/div&gt;&lt;div&gt;&lt;span style=&quot;background-color: initial;&quot;&gt;PositiveDirection: Up|Down|None // of VCS (None if no VCS)&lt;/span&gt;&lt;br&gt;&lt;/div&gt;&lt;div&gt;VerticalShift: double // automatically added to each Z-value&lt;/div&gt;&lt;div&gt;ZUnit: Unit // unit of the Z coordinates&lt;/div&gt;&lt;div&gt;&lt;br&gt;&lt;/div&gt;&lt;div&gt;FalseX: double // false origin; min X value in XY domain&lt;/div&gt;&lt;div&gt;FalseY: double // false origin; min Y value in XY domain&lt;/div&gt;&lt;div&gt;XYTolerance: double&lt;/div&gt;&lt;div&gt;XYResolution: double&lt;/div&gt;&lt;div&gt;XYScale: double&lt;/div&gt;&lt;div&gt;&lt;div&gt;Domain: Envelope // the square domain extent of the XY coords&lt;/div&gt;&lt;div&gt;&lt;br&gt;&lt;/div&gt;&lt;/div&gt;&lt;div&gt;ZTolerance&lt;/div&gt;&lt;div&gt;ZScale&lt;/div&gt;&lt;div&gt;FalseZ: double // the min Z value of the Z domain&lt;/div&gt;&lt;div&gt;&lt;br&gt;&lt;/div&gt;&lt;div&gt;MTolerance&lt;/div&gt;&lt;div&gt;MScale&lt;/div&gt;&lt;div&gt;FalseM: double // the min M value of the M domain&lt;/div&gt;&lt;div&gt;&lt;br&gt;&lt;/div&gt;&lt;/div&gt;&lt;div&gt;IsHighPrecision: bool&lt;/div&gt;&lt;div&gt;&lt;br&gt;&lt;/div&gt;&lt;div&gt;GetConvergenceAngle(Coordinate2D): double&lt;/div&gt;&lt;div&gt;IsEqual(otherSRef, bool ignoreUnknown = false): bool&lt;/div&gt;&lt;div&gt;AreEqual(sr1, sr2): bool // static&lt;/div&gt;&lt;div&gt;ToJson(): string // an ArcGIS JSON representation&lt;/div&gt;&lt;div&gt;ToXml(): string // an ArcGIS XML representation&lt;/div&gt;" style="text;html=1;strokeColor=#6c8ebf;fillColor=#dae8fc;align=left;verticalAlign=top;whiteSpace=wrap;rounded=0;fontSize=12;spacingLeft=6;spacingTop=2;" vertex="1" parent="1">
          <mxGeometry x="80" y="120" width="370" height="760" as="geometry" />
        </mxCell>
        <mxCell id="bgZUvAbGRWMz6e4nZoPS-1" value="&lt;div&gt;&lt;b&gt;Common Acronyms&lt;/b&gt;&lt;/div&gt;WKID = well-known ID (values &amp;lt;= 0 do not&amp;nbsp;&lt;span style=&quot;background-color: initial;&quot;&gt;refer to a coordinate system)&lt;/span&gt;&lt;div&gt;WKT = well-known text&lt;br&gt;&lt;div&gt;&lt;div&gt;GCS = geographic coordinate system&lt;/div&gt;&lt;div&gt;PCS = projected coordinate system&lt;/div&gt;&lt;div&gt;VCS = vertical coordinate system&lt;/div&gt;&lt;/div&gt;&lt;/div&gt;" style="text;html=1;strokeColor=#d6b656;fillColor=#fff2cc;align=left;verticalAlign=middle;whiteSpace=wrap;rounded=0;fontSize=12;sketch=1;shadow=0;spacingLeft=2;spacingTop=2;" vertex="1" parent="1">
          <mxGeometry x="520" y="40" width="250" height="110" as="geometry" />
        </mxCell>
        <mxCell id="bgZUvAbGRWMz6e4nZoPS-2" value="Gcs: the underlying GCS, reference to self if this is a GCS, or null if this IsUnknown or IsImage." style="text;html=1;strokeColor=#d6b656;fillColor=#fff2cc;align=left;verticalAlign=middle;whiteSpace=wrap;rounded=0;fontSize=12;sketch=1;shadow=0;spacingLeft=2;spacingTop=2;" vertex="1" parent="1">
          <mxGeometry x="540" y="210" width="250" height="80" as="geometry" />
        </mxCell>
        <mxCell id="J_iYFQqEvLJ9Nd2Zi-EV-1" value="&lt;b&gt;&lt;font style=&quot;font-size: 14px&quot;&gt;WktFormatMode&lt;/font&gt;&lt;/b&gt; (enum)&lt;br&gt;None = 0&lt;br&gt;HasZ = 1&lt;br&gt;HasM = 2&lt;br&gt;HasID = 4&lt;br&gt;AllAttributes = 7" style="text;html=1;strokeColor=#d79b00;fillColor=#ffe6cc;align=left;verticalAlign=middle;whiteSpace=wrap;rounded=0;fontSize=12;spacingLeft=4;" vertex="1" parent="1">
          <mxGeometry x="535" y="330" width="180" height="100" as="geometry" />
        </mxCell>
        <mxCell id="J_iYFQqEvLJ9Nd2Zi-EV-2" value="&lt;b&gt;&lt;font style=&quot;font-size: 14px&quot;&gt;PositiveDirection&lt;/font&gt;&lt;/b&gt; (enum)&lt;br&gt;Up = 1&lt;div&gt;Down = -1&lt;/div&gt;&lt;div&gt;None = 0 (if SRef has no VCS)&lt;/div&gt;" style="text;html=1;strokeColor=#d79b00;fillColor=#ffe6cc;align=left;verticalAlign=middle;whiteSpace=wrap;rounded=0;fontSize=12;spacingLeft=4;" vertex="1" parent="1">
          <mxGeometry x="605" y="440" width="185" height="70" as="geometry" />
        </mxCell>
        <mxCell id="jeUZ4pPGb3kJjuKxuSYY-1" value="&lt;b&gt;&lt;font style=&quot;font-size: 14px&quot;&gt;Datum&lt;/font&gt;&lt;/b&gt;&amp;nbsp;(sealed)&lt;div&gt;Name: string&lt;/div&gt;&lt;div&gt;Wkid: int&lt;/div&gt;&lt;div&gt;SpheroidName: string&lt;/div&gt;&lt;div&gt;SpheroidWkid: int&lt;/div&gt;&lt;div&gt;SpheroidSemiMajorAxis: double&lt;/div&gt;&lt;div&gt;SpheroidSemiMinorAxis: double&lt;br&gt;&lt;/div&gt;&lt;div&gt;SpheroidFlattening: double&lt;/div&gt;" style="text;html=1;strokeColor=#6c8ebf;fillColor=#dae8fc;align=left;verticalAlign=top;whiteSpace=wrap;rounded=0;fontSize=12;spacingLeft=6;spacingTop=2;" vertex="1" parent="1">
          <mxGeometry x="575" y="750" width="210" height="130" as="geometry" />
        </mxCell>
        <mxCell id="jeUZ4pPGb3kJjuKxuSYY-2" value="Domain &amp;amp; Horizon&lt;div&gt;&lt;br&gt;&lt;/div&gt;&lt;div&gt;Horizon: a polygon describing the valid area of use of a PCS; coords use same Unit as the PCS. Can be a multipart polygon. If isInclusive is false, the polygon describes the complement of the valid area of use. The GCS&#39;s Horizon is an Envelope, not a Polygon.&lt;/div&gt;" style="text;html=1;strokeColor=#d6b656;fillColor=#fff2cc;align=left;verticalAlign=middle;whiteSpace=wrap;rounded=0;fontSize=12;sketch=1;shadow=0;spacingLeft=2;spacingTop=2;" vertex="1" parent="1">
          <mxGeometry x="535" y="520" width="250" height="130" as="geometry" />
        </mxCell>
        <mxCell id="jeUZ4pPGb3kJjuKxuSYY-3" value="&lt;b&gt;&lt;font style=&quot;font-size: 14px&quot;&gt;SpatialReferences&lt;/font&gt;&lt;/b&gt;&amp;nbsp;(static)&lt;div&gt;WGS84: SpatialReference&lt;/div&gt;&lt;div&gt;WebMercator: SpatialReference&lt;/div&gt;&lt;div&gt;UnknownCS: SpatialReference // internal&lt;/div&gt;" style="text;html=1;strokeColor=#6c8ebf;fillColor=#dae8fc;align=left;verticalAlign=top;whiteSpace=wrap;rounded=0;fontSize=12;spacingLeft=6;spacingTop=2;" vertex="1" parent="1">
          <mxGeometry x="520" y="660" width="240" height="80" as="geometry" />
        </mxCell>
        <mxCell id="jeUZ4pPGb3kJjuKxuSYY-4" value="&lt;b&gt;&lt;font style=&quot;font-size: 14px&quot;&gt;SpatialReferenceBuilder&lt;/font&gt;&lt;/b&gt;&amp;nbsp;(sealed)&lt;div&gt;ctor&#39;s (taking some of: wkid, wkt, vcsWkid, vcsWkt)&lt;/div&gt;&lt;div&gt;Create(int wkid, vcsWkid=0)&lt;/div&gt;&lt;div&gt;Create(wkt, vcsWkt=null)&lt;/div&gt;&lt;div&gt;&lt;span style=&quot;background-color: initial;&quot;&gt;Create(wkid, vcsWkt)&lt;/span&gt;&lt;br&gt;&lt;/div&gt;&lt;div&gt;Create(wkt, vcsWkid)&lt;/div&gt;&lt;div&gt;Create(SpatialReference)&lt;/div&gt;&lt;div&gt;FromXml(xml: string)&lt;/div&gt;&lt;div&gt;FromJson(json: string)&lt;/div&gt;&lt;div&gt;CreateWgs84UtmFromLocation(longitude, latitude)&lt;/div&gt;&lt;div&gt;Name: string // get-only&lt;/div&gt;&lt;div&gt;Wkid: int // get-only&lt;/div&gt;&lt;div&gt;Wkt: string // get-only&lt;/div&gt;&lt;div&gt;GetWkt2(WktFormatMode): string&lt;/div&gt;&lt;div&gt;VcsWkid: int // get+set&lt;/div&gt;&lt;div&gt;VcsWkt: string // get+set&lt;/div&gt;&lt;div&gt;XYResolution: double // get+set&lt;/div&gt;&lt;div&gt;SetDefaultXYResolution()&lt;/div&gt;&lt;div&gt;XYTolerance: double // get+set&lt;/div&gt;&lt;div&gt;SetDefaultXYTolerance()&lt;/div&gt;&lt;div&gt;ZTolerance: double // get+set&lt;/div&gt;&lt;div&gt;SetDefaultZTolerance()&lt;/div&gt;&lt;div&gt;MTolerance: double // get+set&lt;/div&gt;&lt;div&gt;SetDefaultMTolerance()&lt;/div&gt;&lt;div&gt;XYScale: double // get+set&lt;/div&gt;&lt;div&gt;ZScale: double // get+set&lt;/div&gt;&lt;div&gt;MScale: double // get+set&lt;/div&gt;&lt;div&gt;FalseX, FalseY: double // get+set&lt;/div&gt;&lt;div&gt;FalseZ, FalseM: double // get+set&lt;/div&gt;&lt;div&gt;PositiveDirection: enum // get-only&lt;/div&gt;&lt;div&gt;Unit, ZUnit: Unit // get-only&lt;/div&gt;&lt;div&gt;Domain: Envelope // get+set, always a square&lt;/div&gt;&lt;div&gt;IsProjected, IsGeographic, IsUnknown // get-only&lt;/div&gt;&lt;div&gt;IsImage, IsPannable: bool // get-only&lt;/div&gt;&lt;div&gt;BaseGeographic: SpatialReference // underlying GCS or self or null&lt;/div&gt;&lt;div&gt;ToSpatialReference(): SpatialReference&lt;/div&gt;&lt;div&gt;Clone(): SpatialReferenceBuilder&lt;/div&gt;" style="text;html=1;strokeColor=#6c8ebf;fillColor=#dae8fc;align=left;verticalAlign=top;whiteSpace=wrap;rounded=0;fontSize=12;spacingLeft=6;spacingTop=2;" vertex="1" parent="1">
          <mxGeometry x="80" y="900" width="370" height="550" as="geometry" />
        </mxCell>
      </root>
    </mxGraphModel>
  </diagram>
</mxfile>
